<?xml version="1.0" encoding="UTF-8" standalone="no"?>
<!-- Created with Inkscape (http://www.inkscape.org/) -->

<svg
   xmlns:dc="http://purl.org/dc/elements/1.1/"
   xmlns:cc="http://creativecommons.org/ns#"
   xmlns:rdf="http://www.w3.org/1999/02/22-rdf-syntax-ns#"
   xmlns:svg="http://www.w3.org/2000/svg"
   xmlns="http://www.w3.org/2000/svg"
   xmlns:sodipodi="http://sodipodi.sourceforge.net/DTD/sodipodi-0.dtd"
   xmlns:inkscape="http://www.inkscape.org/namespaces/inkscape"
   width="320"
   height="320"
   viewBox="0 0 84.666665 84.666669"
   version="1.1"
   id="svg8"
   inkscape:export-filename="C:\Users\Sumit\Google Drive\Takeout\LOGOS\bhasuri\loader.png"
   inkscape:export-xdpi="96"
   inkscape:export-ydpi="96"
   inkscape:version="0.92.1 r15371"
   sodipodi:docname="loader.svg">
  <defs
     id="defs2">
    <filter
       inkscape:collect="always"
       style="color-interpolation-filters:sRGB"
       id="filter4567"
       x="-0.1032"
       width="1.2064"
       y="-0.1032"
       height="1.2064">
      <feGaussianBlur
         inkscape:collect="always"
         stdDeviation="3.5910285"
         id="feGaussianBlur4569" />
    </filter>
    <filter
       inkscape:collect="always"
       style="color-interpolation-filters:sRGB"
       id="filter4633"
       x="-0.1032"
       width="1.2064"
       y="-0.1032"
       height="1.2064">
      <feGaussianBlur
         inkscape:collect="always"
         stdDeviation="2.054484"
         id="feGaussianBlur4635" />
    </filter>
  </defs>
  <sodipodi:namedview
     id="base"
     pagecolor="#ffffff"
     bordercolor="#666666"
     borderopacity="1.0"
     inkscape:pageopacity="0.0"
     inkscape:pageshadow="2"
     inkscape:zoom="0.93194464"
     inkscape:cx="142.78601"
     inkscape:cy="176.14619"
     inkscape:document-units="mm"
     inkscape:current-layer="layer1"
     showgrid="false"
     units="px"
     inkscape:window-width="1366"
     inkscape:window-height="705"
     inkscape:window-x="-8"
     inkscape:window-y="32"
     inkscape:window-maximized="1" />
  <metadata
     id="metadata5">
    <rdf:RDF>
      <cc:Work
         rdf:about="">
        <dc:format>image/svg+xml</dc:format>
        <dc:type
           rdf:resource="http://purl.org/dc/dcmitype/StillImage" />
        <dc:title></dc:title>
      </cc:Work>
    </rdf:RDF>
  </metadata>
  <g
     inkscape:label="Layer 1"
     inkscape:groupmode="layer"
     id="layer1"
     transform="translate(0,-212.33332)">
    <g
       id="g4707"
       transform="matrix(0.66275307,0,0,0.66275307,59.895723,162.67098)"
       style="stroke-width:1.50885761">
      <g
         id="g4697"
         style="stroke-width:1.50885761">
        <path
           d="m 15.256586,138.62253 a 41.756145,41.756145 0 0 1 -41.537826,41.94141 41.756145,41.756145 0 0 1 -41.973303,-41.5056 41.756145,41.756145 0 0 1 41.47336,-42.005168 41.756145,41.756145 0 0 1 42.037002,41.441088"
           sodipodi:open="true"
           sodipodi:end="6.2756629"
           sodipodi:start="6.2787347"
           sodipodi:ry="41.756145"
           sodipodi:rx="41.756145"
           sodipodi:cy="138.80836"
           sodipodi:cx="-26.499146"
           sodipodi:type="arc"
           id="path4499"
           style="opacity:1;fill:#ff0000;fill-opacity:1;stroke:none;stroke-width:0;stroke-linecap:round;stroke-linejoin:miter;stroke-miterlimit:4;stroke-dasharray:none;stroke-opacity:1;paint-order:fill markers stroke;filter:url(#filter4567)" />
        <g
           id="g4691"
           transform="translate(13.651059,-7.6285235)"
           style="stroke-width:1.50885761">
          <path
             d="M 1.6055587,146.25105 A 41.756176,41.756176 0 0 1 -39.932298,188.1925 41.756176,41.756176 0 0 1 -81.905631,146.68686 41.756176,41.756176 0 0 1 -40.432242,104.68167 41.756176,41.756176 0 0 1 1.6047909,146.12279"
             sodipodi:open="true"
             sodipodi:end="6.2756629"
             sodipodi:start="6.2787347"
             sodipodi:ry="41.756176"
             sodipodi:rx="41.756176"
             sodipodi:cy="146.43689"
             sodipodi:cx="-40.150204"
             sodipodi:type="arc"
             id="path4487"
             style="opacity:1;fill:#00ff00;fill-opacity:1;stroke:none;stroke-width:0;stroke-linecap:round;stroke-linejoin:miter;stroke-miterlimit:4;stroke-dasharray:none;stroke-opacity:1;paint-order:fill markers stroke" />
          <path
             inkscape:connector-curvature="0"
             id="path4489"
             d="m -40.215177,104.68143 a 10.840547,41.756176 0 0 0 -10.415383,31.27149 41.756176,10.840547 0 0 0 -31.275094,10.54871 41.756176,10.840547 0 0 0 31.270961,10.41487 10.840547,41.756176 0 0 0 10.532689,31.27612 l 0.03307,-0.001 a 10.840547,41.756176 0 0 0 10.398328,-31.27096 41.756176,10.840547 0 0 0 31.2761295,-10.53217 l -0.001,-0.0336 A 41.756176,10.840547 0 0 0 -29.666466,135.95654 10.840547,41.756176 0 0 0 -40.215177,104.68143 Z"
             style="opacity:1;fill:#ffffff;fill-opacity:1;stroke:none;stroke-width:0;stroke-linecap:round;stroke-linejoin:miter;stroke-miterlimit:4;stroke-dasharray:none;stroke-opacity:1;paint-order:fill markers stroke" />
        </g>
      </g>
      <g
         transform="translate(-102.38293,-35.733642)"
         id="g4687"
         style="stroke-width:1.50885761">
        <path
           d="M 99.772894,174.43569 A 23.889349,23.889349 0 0 1 76.008449,198.43103 23.889349,23.889349 0 0 1 51.994861,174.68502 23.889349,23.889349 0 0 1 75.722423,150.6532 23.889349,23.889349 0 0 1 99.772455,174.3623"
           sodipodi:open="true"
           sodipodi:end="6.2756629"
           sodipodi:start="6.2787347"
           sodipodi:ry="23.889349"
           sodipodi:rx="23.889349"
           sodipodi:cy="174.54201"
           sodipodi:cx="75.883781"
           sodipodi:type="arc"
           id="path4619"
           style="opacity:1;fill:#ff0000;fill-opacity:0.96862745;stroke:none;stroke-width:0;stroke-linecap:round;stroke-linejoin:miter;stroke-miterlimit:4;stroke-dasharray:none;stroke-opacity:1;paint-order:fill markers stroke;filter:url(#filter4633)" />
        <path
           style="opacity:1;fill:#00ff00;fill-opacity:1;stroke:none;stroke-width:0;stroke-linecap:round;stroke-linejoin:miter;stroke-miterlimit:4;stroke-dasharray:none;stroke-opacity:1;paint-order:fill markers stroke"
           id="path4575"
           sodipodi:type="arc"
           sodipodi:cx="75.883781"
           sodipodi:cy="174.54201"
           sodipodi:rx="23.889349"
           sodipodi:ry="23.889349"
           sodipodi:start="6.2787347"
           sodipodi:end="6.2756629"
           sodipodi:open="true"
           d="M 99.772894,174.43569 A 23.889349,23.889349 0 0 1 76.008449,198.43103 23.889349,23.889349 0 0 1 51.994861,174.68502 23.889349,23.889349 0 0 1 75.722423,150.6532 23.889349,23.889349 0 0 1 99.772455,174.3623" />
      </g>
    </g>
  </g>
</svg>
